<svg width="256" height="27" viewBox="0 0 256 27" fill="none" xmlns="http://www.w3.org/2000/svg">
<path d="M21.1152 26H15.8418V15.0312H5.55859V26H0.285156V0.40625H5.55859V10.7773H15.8418V0.40625H21.1152V26ZM46.7617 13.7832C46.7617 16.3027 46.3164 18.5117 45.4258 20.4102C44.5352 22.3086 43.2578 23.7734 41.5938 24.8047C39.9414 25.8359 38.043 26.3516 35.8984 26.3516C33.7773 26.3516 31.8848 25.8418 30.2207 24.8223C28.5566 23.8027 27.2676 22.3496 26.3535 20.4629C25.4395 18.5645 24.9766 16.3848 24.9648 13.9238V12.6582C24.9648 10.1387 25.416 7.92383 26.3184 6.01367C27.2324 4.0918 28.5156 2.62109 30.168 1.60156C31.832 0.570312 33.7305 0.0546875 35.8633 0.0546875C37.9961 0.0546875 39.8887 0.570312 41.541 1.60156C43.2051 2.62109 44.4883 4.0918 45.3906 6.01367C46.3047 7.92383 46.7617 10.1328 46.7617 12.6406V13.7832ZM41.418 12.623C41.418 9.93945 40.9375 7.90039 39.9766 6.50586C39.0156 5.11133 37.6445 4.41406 35.8633 4.41406C34.0938 4.41406 32.7285 5.10547 31.7676 6.48828C30.8066 7.85938 30.3203 9.875 30.3086 12.5352V13.7832C30.3086 16.3965 30.7891 18.4238 31.75 19.8652C32.7109 21.3066 34.0938 22.0273 35.8984 22.0273C37.668 22.0273 39.0273 21.3359 39.9766 19.9531C40.9258 18.5586 41.4062 16.5312 41.418 13.8711V12.623ZM55.8672 21.7637H67.0645V26H50.5938V0.40625H55.8672V21.7637ZM75.7129 26H70.4395V0.40625H75.7129V26ZM80.6172 26V0.40625H88.4922C90.7422 0.40625 92.752 0.916016 94.5215 1.93555C96.3027 2.94336 97.6914 4.38477 98.6875 6.25977C99.6836 8.12305 100.182 10.2441 100.182 12.623V13.8008C100.182 16.1797 99.6895 18.2949 98.7051 20.1465C97.7324 21.998 96.3555 23.4336 94.5742 24.4531C92.793 25.4727 90.7832 25.9883 88.5449 26H80.6172ZM85.8906 4.67773V21.7637H88.4395C90.502 21.7637 92.0781 21.0898 93.168 19.7422C94.2578 18.3945 94.8145 16.4668 94.8379 13.959V12.6055C94.8379 10.0039 94.2988 8.03516 93.2207 6.69922C92.1426 5.35156 90.5664 4.67773 88.4922 4.67773H85.8906ZM118.094 20.7266H108.848L107.09 26H101.482L111.01 0.40625H115.896L125.477 26H119.869L118.094 20.7266ZM110.271 16.4551H116.67L113.453 6.875L110.271 16.4551ZM134.055 11.9375L139.381 0.40625H145.146L136.744 16.7188V26H131.383V16.7188L122.98 0.40625H128.764L134.055 11.9375ZM176.699 22.7656C175.75 23.9023 174.408 24.7871 172.674 25.4199C170.939 26.041 169.018 26.3516 166.908 26.3516C164.693 26.3516 162.748 25.8711 161.072 24.9102C159.408 23.9375 158.119 22.5312 157.205 20.6914C156.303 18.8516 155.84 16.6895 155.816 14.2051V12.4648C155.816 9.91016 156.244 7.70117 157.1 5.83789C157.967 3.96289 159.209 2.5332 160.826 1.54883C162.455 0.552734 164.359 0.0546875 166.539 0.0546875C169.574 0.0546875 171.947 0.78125 173.658 2.23438C175.369 3.67578 176.383 5.7793 176.699 8.54492H171.566C171.332 7.08008 170.811 6.00781 170.002 5.32812C169.205 4.64844 168.104 4.30859 166.697 4.30859C164.904 4.30859 163.539 4.98242 162.602 6.33008C161.664 7.67773 161.189 9.68164 161.178 12.3418V13.9766C161.178 16.6602 161.688 18.6875 162.707 20.0586C163.727 21.4297 165.221 22.1152 167.189 22.1152C169.17 22.1152 170.582 21.6934 171.426 20.8496V16.4375H166.627V12.5527H176.699V22.7656ZM200.359 0.40625V17.2637C200.359 20.0645 199.48 22.2793 197.723 23.9082C195.977 25.5371 193.586 26.3516 190.551 26.3516C187.562 26.3516 185.189 25.5605 183.432 23.9785C181.674 22.3965 180.777 20.2227 180.742 17.457V0.40625H186.016V17.2988C186.016 18.9746 186.414 20.1992 187.211 20.9727C188.02 21.7344 189.133 22.1152 190.551 22.1152C193.516 22.1152 195.021 20.5566 195.068 17.4395V0.40625H200.359ZM210.291 26H205.018V0.40625H210.291V26ZM215.195 26V0.40625H223.07C225.32 0.40625 227.33 0.916016 229.1 1.93555C230.881 2.94336 232.27 4.38477 233.266 6.25977C234.262 8.12305 234.76 10.2441 234.76 12.623V13.8008C234.76 16.1797 234.268 18.2949 233.283 20.1465C232.311 21.998 230.934 23.4336 229.152 24.4531C227.371 25.4727 225.361 25.9883 223.123 26H215.195ZM220.469 4.67773V21.7637H223.018C225.08 21.7637 226.656 21.0898 227.746 19.7422C228.836 18.3945 229.393 16.4668 229.416 13.959V12.6055C229.416 10.0039 228.877 8.03516 227.799 6.69922C226.721 5.35156 225.145 4.67773 223.07 4.67773H220.469ZM254.008 14.9082H243.883V21.7637H255.766V26H238.609V0.40625H255.73V4.67773H243.883V10.7773H254.008V14.9082Z" fill="#00CEC9"/>
</svg>
