<svg width="278" height="27" viewBox="0 0 278 27" fill="none" xmlns="http://www.w3.org/2000/svg">
<path d="M21.1152 26H15.8418V15.0312H5.55859V26H0.285156V0.40625H5.55859V10.7773H15.8418V0.40625H21.1152V26ZM46.7617 13.7832C46.7617 16.3027 46.3164 18.5117 45.4258 20.4102C44.5352 22.3086 43.2578 23.7734 41.5938 24.8047C39.9414 25.8359 38.043 26.3516 35.8984 26.3516C33.7773 26.3516 31.8848 25.8418 30.2207 24.8223C28.5566 23.8027 27.2676 22.3496 26.3535 20.4629C25.4395 18.5645 24.9766 16.3848 24.9648 13.9238V12.6582C24.9648 10.1387 25.416 7.92383 26.3184 6.01367C27.2324 4.0918 28.5156 2.62109 30.168 1.60156C31.832 0.570312 33.7305 0.0546875 35.8633 0.0546875C37.9961 0.0546875 39.8887 0.570312 41.541 1.60156C43.2051 2.62109 44.4883 4.0918 45.3906 6.01367C46.3047 7.92383 46.7617 10.1328 46.7617 12.6406V13.7832ZM41.418 12.623C41.418 9.93945 40.9375 7.90039 39.9766 6.50586C39.0156 5.11133 37.6445 4.41406 35.8633 4.41406C34.0938 4.41406 32.7285 5.10547 31.7676 6.48828C30.8066 7.85938 30.3203 9.875 30.3086 12.5352V13.7832C30.3086 16.3965 30.7891 18.4238 31.75 19.8652C32.7109 21.3066 34.0938 22.0273 35.8984 22.0273C37.668 22.0273 39.0273 21.3359 39.9766 19.9531C40.9258 18.5586 41.4062 16.5312 41.418 13.8711V12.623ZM55.8672 21.7637H67.0645V26H50.5938V0.40625H55.8672V21.7637ZM75.7129 26H70.4395V0.40625H75.7129V26ZM80.6172 26V0.40625H88.4922C90.7422 0.40625 92.752 0.916016 94.5215 1.93555C96.3027 2.94336 97.6914 4.38477 98.6875 6.25977C99.6836 8.12305 100.182 10.2441 100.182 12.623V13.8008C100.182 16.1797 99.6895 18.2949 98.7051 20.1465C97.7324 21.998 96.3555 23.4336 94.5742 24.4531C92.793 25.4727 90.7832 25.9883 88.5449 26H80.6172ZM85.8906 4.67773V21.7637H88.4395C90.502 21.7637 92.0781 21.0898 93.168 19.7422C94.2578 18.3945 94.8145 16.4668 94.8379 13.959V12.6055C94.8379 10.0039 94.2988 8.03516 93.2207 6.69922C92.1426 5.35156 90.5664 4.67773 88.4922 4.67773H85.8906ZM118.094 20.7266H108.848L107.09 26H101.482L111.01 0.40625H115.896L125.477 26H119.869L118.094 20.7266ZM110.271 16.4551H116.67L113.453 6.875L110.271 16.4551ZM134.055 11.9375L139.381 0.40625H145.146L136.744 16.7188V26H131.383V16.7188L122.98 0.40625H128.764L134.055 11.9375ZM160.475 19.2852C160.475 18.2891 160.123 17.5273 159.42 17C158.717 16.4609 157.451 15.8984 155.623 15.3125C153.795 14.7148 152.348 14.1289 151.281 13.5547C148.375 11.9844 146.922 9.86914 146.922 7.20898C146.922 5.82617 147.309 4.5957 148.082 3.51758C148.867 2.42773 149.986 1.57813 151.439 0.96875C152.904 0.359375 154.545 0.0546875 156.361 0.0546875C158.189 0.0546875 159.818 0.388672 161.248 1.05664C162.678 1.71289 163.785 2.64453 164.57 3.85156C165.367 5.05859 165.766 6.42969 165.766 7.96484H160.492C160.492 6.79297 160.123 5.88477 159.385 5.24023C158.646 4.58398 157.609 4.25586 156.273 4.25586C154.984 4.25586 153.982 4.53125 153.268 5.08203C152.553 5.62109 152.195 6.33594 152.195 7.22656C152.195 8.05859 152.611 8.75586 153.443 9.31836C154.287 9.88086 155.523 10.4082 157.152 10.9004C160.152 11.8027 162.338 12.9219 163.709 14.2578C165.08 15.5938 165.766 17.2578 165.766 19.25C165.766 21.4648 164.928 23.2051 163.252 24.4707C161.576 25.7246 159.32 26.3516 156.484 26.3516C154.516 26.3516 152.723 25.9941 151.105 25.2793C149.488 24.5527 148.252 23.5625 147.396 22.3086C146.553 21.0547 146.131 19.6016 146.131 17.9492H151.422C151.422 20.7734 153.109 22.1855 156.484 22.1855C157.738 22.1855 158.717 21.9336 159.42 21.4297C160.123 20.9141 160.475 20.1992 160.475 19.2852ZM198.566 22.7656C197.617 23.9023 196.275 24.7871 194.541 25.4199C192.807 26.041 190.885 26.3516 188.775 26.3516C186.561 26.3516 184.615 25.8711 182.939 24.9102C181.275 23.9375 179.986 22.5312 179.072 20.6914C178.17 18.8516 177.707 16.6895 177.684 14.2051V12.4648C177.684 9.91016 178.111 7.70117 178.967 5.83789C179.834 3.96289 181.076 2.5332 182.693 1.54883C184.322 0.552734 186.227 0.0546875 188.406 0.0546875C191.441 0.0546875 193.814 0.78125 195.525 2.23438C197.236 3.67578 198.25 5.7793 198.566 8.54492H193.434C193.199 7.08008 192.678 6.00781 191.869 5.32812C191.072 4.64844 189.971 4.30859 188.564 4.30859C186.771 4.30859 185.406 4.98242 184.469 6.33008C183.531 7.67773 183.057 9.68164 183.045 12.3418V13.9766C183.045 16.6602 183.555 18.6875 184.574 20.0586C185.594 21.4297 187.088 22.1152 189.057 22.1152C191.037 22.1152 192.449 21.6934 193.293 20.8496V16.4375H188.494V12.5527H198.566V22.7656ZM222.227 0.40625V17.2637C222.227 20.0645 221.348 22.2793 219.59 23.9082C217.844 25.5371 215.453 26.3516 212.418 26.3516C209.43 26.3516 207.057 25.5605 205.299 23.9785C203.541 22.3965 202.645 20.2227 202.609 17.457V0.40625H207.883V17.2988C207.883 18.9746 208.281 20.1992 209.078 20.9727C209.887 21.7344 211 22.1152 212.418 22.1152C215.383 22.1152 216.889 20.5566 216.936 17.4395V0.40625H222.227ZM232.158 26H226.885V0.40625H232.158V26ZM237.062 26V0.40625H244.938C247.188 0.40625 249.197 0.916016 250.967 1.93555C252.748 2.94336 254.137 4.38477 255.133 6.25977C256.129 8.12305 256.627 10.2441 256.627 12.623V13.8008C256.627 16.1797 256.135 18.2949 255.15 20.1465C254.178 21.998 252.801 23.4336 251.02 24.4531C249.238 25.4727 247.229 25.9883 244.99 26H237.062ZM242.336 4.67773V21.7637H244.885C246.947 21.7637 248.523 21.0898 249.613 19.7422C250.703 18.3945 251.26 16.4668 251.283 13.959V12.6055C251.283 10.0039 250.744 8.03516 249.666 6.69922C248.588 5.35156 247.012 4.67773 244.938 4.67773H242.336ZM275.875 14.9082H265.75V21.7637H277.633V26H260.477V0.40625H277.598V4.67773H265.75V10.7773H275.875V14.9082Z" fill="#00CEC9"/>
</svg>
